# xmcd
#
# Track frame offsets: 
#        182
#        10535
#        21190
#        34315
#        47347
#        59947
#        72587
#        85745
#        99845
#        111397
#        121435
#        137220
#        149762
#        159725
#        171500
#        181382
#        195865
#        208235
#        220792
#        232370
#        250037
#        260182
#        272895
#        282742
#        296800
#        310252
#        320125
#        333692
#
# Disc length: 4616 seconds
#
# Revision: 2
# Processed by: cddbd v1.5.2PL0 Copyright (c) Steve Scherf et al.
# Submitted via: ExactAudioCopy v0.95b4
#
DISCID=d112061c
DTITLE=Lefty Frizzell - Life's Like Poetry - Disc 08 of 12
DYEAR=1992
DGENRE=Country
TTITLE0=When the Rooster Leaves the Yard (1967)
TTITLE1=Anything You Can Spare (1967)
TTITLE2=Only Way to Fly  (Original Vocal) (recorded 1967 - released 19
TTITLE2=92)
TTITLE3=Only Way to Fly (Laughing Version) (recorded 1967 - released 1
TTITLE3=969)
TTITLE4=A Prayer on Your Lips Is Like Freedom in Your Hands (1967)
TTITLE5=Little Old Wine Drinker Me (1967)
TTITLE6=A Word or Two to Mary (recorded 1967 - released 1992)
TTITLE7=Almost Persuaded (1967)
TTITLE8=Lefty Frizzell and June Stearns - Have You Ever Been Untrue (rec
TTITLE8=orded 1967 - released 1968)
TTITLE9=Lefty Frizzell and June Stearns - If You've Got the Money, I've 
TTITLE9=Got the Time (recorded 1967 - released 1968)
TTITLE10=When the Grass Grows Green Again (1968)
TTITLE11=The Marriage Bit (1968)
TTITLE12=I'll Remember You (recorded 1968 - released 1992)
TTITLE13=Wasted Way of Life (recorded 1968 - released 1969)
TTITLE14=Keep Them Flowers Watered While I'm Gone (recorded 1968 - rel
TTITLE14=eased 1969)
TTITLE15=An Article from Life (With Chorus) (recorded 1968 - released 
TTITLE15=1969)
TTITLE16=Blind Street Singer (recorded 1969 - released 1992)
TTITLE17=Honky Tonk Hill (1969)
TTITLE18=My Baby Is a Tramp (1970)
TTITLE19=She Brought Love Sweet Love (1970)
TTITLE20=Watermelon Time in Georgia (recorded 1970 - released 1992)
TTITLE21=I Must Be Getting over You (1970)
TTITLE22=Out of You (recorded 1970 - released 1971)
TTITLE23=It's Raining All over the World (recorded 1970 - released 199
TTITLE23=2)
TTITLE24=There's Something Lonely in This House (recorded 1970 - relea
TTITLE24=sed 1992)
TTITLE25=Three Cheers for the Good Guys (recorded 1970 - released 1971
TTITLE25=)
TTITLE26=An Article from Life (Without Chorus) (recorded 1968 - releas
TTITLE26=ed 1992)
TTITLE27=Honky Tonk Hill (Without Overdub) (recorded 1969 - released 1
TTITLE27=992)
EXTD=Life's Like Poetry - Disc 08 of 12\n© 1992 Bear Family Records
EXTT0=
EXTT1=
EXTT2=
EXTT3=
EXTT4=
EXTT5=
EXTT6=
EXTT7=
EXTT8=
EXTT9=
EXTT10=
EXTT11=
EXTT12=
EXTT13=
EXTT14=
EXTT15=
EXTT16=
EXTT17=
EXTT18=
EXTT19=
EXTT20=
EXTT21=
EXTT22=
EXTT23=
EXTT24=
EXTT25=
EXTT26=
EXTT27=
PLAYORDER=
